<mxfile host="app.diagrams.net" modified="2022-05-27T02:57:32.018Z" agent="5.0 (X11; Linux x86_64) AppleWebKit/537.36 (KHTML, like Gecko) Chrome/101.0.4951.64 Safari/537.36" etag="F-wrDHQynr9Eso9rHr18" version="18.1.3" type="github">
  <diagram id="bE1adfYTG8pLx8P0WP5n" name="Page-1">
    <mxGraphModel dx="973" dy="486" grid="1" gridSize="10" guides="1" tooltips="1" connect="1" arrows="1" fold="1" page="1" pageScale="1" pageWidth="827" pageHeight="1169" math="0" shadow="0">
      <root>
        <mxCell id="0" />
        <mxCell id="1" parent="0" />
        <mxCell id="hVMqdTgnP-cyFyTbnV0o-1" value="ApiClient&lt;br&gt;" style="rounded=0;whiteSpace=wrap;html=1;" vertex="1" parent="1">
          <mxGeometry x="510" y="120" width="120" height="60" as="geometry" />
        </mxCell>
        <mxCell id="hVMqdTgnP-cyFyTbnV0o-4" style="edgeStyle=orthogonalEdgeStyle;rounded=0;orthogonalLoop=1;jettySize=auto;html=1;entryX=0.5;entryY=1;entryDx=0;entryDy=0;" edge="1" parent="1" target="hVMqdTgnP-cyFyTbnV0o-1">
          <mxGeometry relative="1" as="geometry">
            <mxPoint x="570" y="409.9999999999999" as="sourcePoint" />
          </mxGeometry>
        </mxCell>
        <mxCell id="hVMqdTgnP-cyFyTbnV0o-5" value="Record" style="rounded=0;whiteSpace=wrap;html=1;" vertex="1" parent="1">
          <mxGeometry x="240" y="440" width="120" height="60" as="geometry" />
        </mxCell>
        <mxCell id="hVMqdTgnP-cyFyTbnV0o-10" value="" style="endArrow=classic;html=1;rounded=0;exitX=0;exitY=0.6;exitDx=0;exitDy=0;entryX=1;entryY=0.5;entryDx=0;entryDy=0;exitPerimeter=0;" edge="1" parent="1" target="hVMqdTgnP-cyFyTbnV0o-5">
          <mxGeometry width="50" height="50" relative="1" as="geometry">
            <mxPoint x="510" y="469.9999999999999" as="sourcePoint" />
            <mxPoint x="370" y="440" as="targetPoint" />
            <Array as="points">
              <mxPoint x="410" y="470" />
            </Array>
          </mxGeometry>
        </mxCell>
        <mxCell id="hVMqdTgnP-cyFyTbnV0o-11" value="curd" style="edgeLabel;html=1;align=center;verticalAlign=middle;resizable=0;points=[];" vertex="1" connectable="0" parent="hVMqdTgnP-cyFyTbnV0o-10">
          <mxGeometry x="0.1025" relative="1" as="geometry">
            <mxPoint as="offset" />
          </mxGeometry>
        </mxCell>
        <mxCell id="hVMqdTgnP-cyFyTbnV0o-12" value="DataServiceClient" style="swimlane;fontStyle=0;childLayout=stackLayout;horizontal=1;startSize=30;horizontalStack=0;resizeParent=1;resizeParentMax=0;resizeLast=0;collapsible=1;marginBottom=0;" vertex="1" parent="1">
          <mxGeometry x="510" y="410" width="140" height="90" as="geometry" />
        </mxCell>
        <mxCell id="hVMqdTgnP-cyFyTbnV0o-14" value="user_" style="text;strokeColor=none;fillColor=none;align=left;verticalAlign=middle;spacingLeft=4;spacingRight=4;overflow=hidden;points=[[0,0.5],[1,0.5]];portConstraint=eastwest;rotatable=0;" vertex="1" parent="hVMqdTgnP-cyFyTbnV0o-12">
          <mxGeometry y="30" width="140" height="30" as="geometry" />
        </mxCell>
        <mxCell id="hVMqdTgnP-cyFyTbnV0o-15" value="datum" style="text;strokeColor=none;fillColor=none;align=left;verticalAlign=middle;spacingLeft=4;spacingRight=4;overflow=hidden;points=[[0,0.5],[1,0.5]];portConstraint=eastwest;rotatable=0;" vertex="1" parent="hVMqdTgnP-cyFyTbnV0o-12">
          <mxGeometry y="60" width="140" height="30" as="geometry" />
        </mxCell>
      </root>
    </mxGraphModel>
  </diagram>
</mxfile>
